<?xml version="1.0" standalone="no"?>
<!DOCTYPE svg PUBLIC "-//W3C//DTD SVG 20010904//EN"
 "http://www.w3.org/TR/2001/REC-SVG-20010904/DTD/svg10.dtd">
<svg version="1.0" xmlns="http://www.w3.org/2000/svg"
 width="500.000000pt" height="500.000000pt" viewBox="0 0 500.000000 500.000000"
 preserveAspectRatio="xMidYMid meet">

<g transform="translate(0.000000,500.000000) scale(0.100000,-0.100000)"
fill="#000000" stroke="none">
<path d="M2260 4899 c-454 -50 -847 -204 -1211 -475 -100 -75 -258 -219 -249
-226 3 -3 208 -59 455 -126 871 -235 1533 -413 1793 -484 144 -39 264 -69 267
-66 3 3 -17 83 -44 179 -27 96 -111 397 -187 669 -75 272 -138 497 -140 498
-1 2 -42 10 -91 18 -110 18 -479 26 -593 13z"/>
<path d="M3084 4823 c3 -10 93 -335 201 -723 108 -388 211 -759 230 -825 100
-354 275 -985 275 -992 0 -4 224 216 499 491 l499 498 -40 102 c-178 460 -499
858 -918 1138 -147 98 -389 215 -555 270 -186 61 -198 64 -191 41z"/>
<path d="M631 4023 c-233 -291 -407 -650 -485 -1003 -43 -194 -51 -282 -51
-525 1 -243 12 -357 58 -543 l22 -92 935 934 c514 515 932 937 930 939 -5 4
-203 57 -1040 283 -151 41 -282 77 -291 79 -11 4 -35 -19 -78 -72z"/>
<path d="M2375 3345 c-261 -57 -455 -295 -455 -558 0 -37 5 -89 11 -115 17
-70 78 -194 153 -312 84 -132 122 -210 143 -297 9 -37 21 -74 26 -80 12 -16
492 -19 502 -3 3 5 14 44 25 86 26 101 55 163 146 310 84 137 116 205 139 292
29 116 13 247 -47 371 -45 92 -169 215 -262 260 -122 58 -254 74 -381 46z"/>
<path d="M3886 2201 l-939 -939 34 -10 c19 -6 241 -68 494 -137 253 -69 540
-149 638 -176 141 -39 182 -47 193 -38 8 7 45 51 83 98 282 357 454 769 506
1219 18 149 19 392 4 530 -10 97 -53 335 -67 372 -6 17 -157 -130 -946 -919z"/>
<path d="M710 2225 l-495 -495 25 -72 c37 -108 170 -370 245 -483 263 -394
612 -691 1030 -877 113 -51 345 -132 353 -124 2 3 -96 386 -218 853 -122 466
-229 873 -237 903 -132 507 -205 785 -207 787 -1 1 -224 -220 -496 -492z"/>
<path d="M2254 1892 c-19 -13 -23 -41 -8 -57 13 -13 53 -15 253 -15 171 0 240
3 249 12 18 18 14 46 -7 58 -22 11 -470 14 -487 2z"/>
<path d="M2241 1742 c-18 -34 5 -52 65 -52 39 0 56 -4 60 -15 9 -22 249 -22
261 -1 5 10 29 16 68 18 48 2 60 6 63 21 9 44 -6 47 -264 47 -223 0 -244 -1
-253 -18z"/>
<path d="M1660 1479 c0 -8 40 -167 89 -354 49 -187 126 -482 171 -655 45 -173
87 -320 94 -327 39 -41 526 -66 760 -39 513 60 958 262 1354 615 62 55 71 67
55 73 -10 4 -189 55 -398 112 -660 182 -1947 536 -2025 558 -41 11 -80 22 -87
25 -7 3 -13 -1 -13 -8z"/>
</g>
</svg>
